<?xml version="1.0" encoding="UTF-8" standalone="no"?>
<!DOCTYPE svg PUBLIC "-//W3C//DTD SVG 1.1//EN" "http://www.w3.org/Graphics/SVG/1.1/DTD/svg11.dtd">
<svg width="100%" height="100%" viewBox="0 0 2916 512" version="1.1" xmlns="http://www.w3.org/2000/svg" xmlns:xlink="http://www.w3.org/1999/xlink" xml:space="preserve" xmlns:serif="http://www.serif.com/" style="fill-rule:evenodd;clip-rule:evenodd;stroke-linejoin:round;stroke-miterlimit:2;">
    <g id="Artboard1" transform="matrix(0.99285,0,0,0.946396,-602.66,-688.03)">
        <rect x="607" y="727" width="2937" height="541" style="fill:none;"/>
        <g transform="matrix(1.0072,0,0,1.05664,-25.5226,-52.8008)">
            <g transform="matrix(15.7741,0,0,15.7741,-6976.13,-9753.04)">
                <g transform="matrix(18.2578,0,0,18.2578,484.479,686.542)">
                    <path d="M0.367,-0.695L0.109,-0.695L0.104,-0.677L0.17,-0.677L0.022,-0.018L-0.043,-0.018L-0.047,-0L0.235,-0L0.24,-0.018L0.159,-0.018L0.219,-0.287L0.273,-0.287C0.392,-0.287 0.503,-0.368 0.532,-0.495C0.561,-0.621 0.495,-0.695 0.367,-0.695ZM0.391,-0.503C0.361,-0.379 0.314,-0.303 0.266,-0.303L0.222,-0.303L0.306,-0.677L0.336,-0.677C0.397,-0.677 0.419,-0.627 0.391,-0.503Z" style="fill-rule:nonzero;"/>
                </g>
                <g transform="matrix(18.2578,0,0,18.2578,493.68,686.542)">
                    <path d="M0.38,-0.248C0.316,-0.077 0.262,-0.019 0.184,-0.019L0.158,-0.019L0.306,-0.676L0.383,-0.676L0.387,-0.695L0.109,-0.695L0.104,-0.676L0.169,-0.676L0.022,-0.019L-0.043,-0.019L-0.047,-0L0.335,-0L0.397,-0.248L0.38,-0.248Z" style="fill-rule:nonzero;"/>
                </g>
                <g transform="matrix(18.2578,0,0,18.2578,501.696,686.542)">
                    <path d="M0.385,-0.019L0.4,-0.696L0.289,-0.696L0.031,-0.089C0.014,-0.051 -0.017,-0.018 -0.061,-0.018L-0.078,-0.018L-0.083,-0L0.11,-0L0.114,-0.018L0.104,-0.018C0.06,-0.018 0.043,-0.044 0.062,-0.087L0.118,-0.224L0.255,-0.224L0.248,-0.019L0.196,-0.019L0.192,-0L0.436,-0L0.441,-0.019L0.385,-0.019ZM0.127,-0.245L0.265,-0.581L0.255,-0.245L0.127,-0.245Z" style="fill-rule:nonzero;"/>
                </g>
                <g transform="matrix(18.2578,0,0,18.2578,510.514,686.542)">
                    <path d="M0.429,-0.695L0.425,-0.677L0.427,-0.677C0.465,-0.677 0.494,-0.646 0.481,-0.585L0.386,-0.162L0.303,-0.695L0.1,-0.695L0.096,-0.677L0.117,-0.677C0.159,-0.677 0.169,-0.66 0.159,-0.615L0.048,-0.116C0.033,-0.05 -0.01,-0.018 -0.051,-0.018L-0.061,-0.018L-0.066,-0L0.133,-0L0.138,-0.018L0.13,-0.018C0.086,-0.018 0.058,-0.05 0.073,-0.116L0.184,-0.612L0.288,0.007L0.372,0.007L0.505,-0.585C0.518,-0.646 0.564,-0.677 0.6,-0.677L0.606,-0.677L0.611,-0.695L0.429,-0.695Z" style="fill-rule:nonzero;"/>
                </g>
                <g transform="matrix(18.2578,0,0,18.2578,520.172,686.542)">
                    <path d="M0.128,-0.695L0.059,-0.428L0.079,-0.428C0.135,-0.588 0.209,-0.676 0.28,-0.677L0.132,-0.018L0.053,-0.018L0.048,-0L0.342,-0L0.347,-0.018L0.268,-0.018L0.416,-0.677C0.486,-0.675 0.517,-0.587 0.505,-0.428L0.525,-0.428L0.574,-0.695L0.128,-0.695Z" style="fill-rule:nonzero;"/>
                </g>
                <g transform="matrix(18.2578,0,0,18.2578,529.776,686.542)">
                    <path d="M0.397,-0.695L0.393,-0.677L0.422,-0.677C0.469,-0.677 0.456,-0.629 0.443,-0.6L0.308,-0.326L0.261,-0.677L0.317,-0.677L0.322,-0.695L0.073,-0.695L0.068,-0.677L0.123,-0.677L0.18,-0.284L0.12,-0.019L0.043,-0.019L0.038,-0L0.33,-0L0.335,-0.019L0.256,-0.019L0.321,-0.306L0.468,-0.596C0.483,-0.628 0.51,-0.677 0.571,-0.677L0.593,-0.677L0.597,-0.695L0.397,-0.695Z" style="fill-rule:nonzero;"/>
                </g>
                <g transform="matrix(18.2578,0,0,18.2578,541.534,686.542)">
                    <path d="M0.499,-0.695L0.303,-0.247L0.304,-0.695L0.096,-0.695L0.092,-0.677L0.106,-0.677C0.148,-0.677 0.158,-0.66 0.148,-0.615L0.038,-0.12C0.022,-0.049 -0.025,-0.018 -0.064,-0.018L-0.066,-0.018L-0.07,-0L0.116,-0L0.121,-0.018L0.118,-0.018C0.076,-0.018 0.045,-0.049 0.062,-0.12L0.174,-0.62L0.195,0.01L0.216,0.01L0.497,-0.626L0.361,-0.018L0.305,-0.018L0.3,-0L0.557,-0L0.562,-0.018L0.497,-0.018L0.635,-0.64C0.64,-0.664 0.658,-0.677 0.681,-0.677L0.709,-0.677L0.713,-0.695L0.499,-0.695Z" style="fill-rule:nonzero;"/>
                </g>
                <g transform="matrix(18.2578,0,0,18.2578,553.274,686.542)">
                    <path d="M0.339,-0.409C0.303,-0.409 0.279,-0.383 0.281,-0.349C0.283,-0.313 0.31,-0.295 0.344,-0.295C0.388,-0.295 0.416,-0.325 0.415,-0.368C0.415,-0.451 0.365,-0.491 0.274,-0.491C0.124,-0.491 0.023,-0.355 0.019,-0.21C0.013,-0.062 0.082,0.012 0.186,0.012C0.28,0.012 0.343,-0.053 0.368,-0.139L0.354,-0.146C0.331,-0.077 0.278,-0.038 0.233,-0.038C0.174,-0.038 0.153,-0.086 0.16,-0.204C0.164,-0.326 0.215,-0.461 0.313,-0.461C0.345,-0.461 0.383,-0.442 0.392,-0.387C0.38,-0.401 0.358,-0.409 0.339,-0.409Z" style="fill-rule:nonzero;"/>
                </g>
                <g transform="matrix(18.2578,0,0,18.2578,560.632,686.542)">
                    <path d="M0.367,-0.695L0.109,-0.695L0.104,-0.677L0.17,-0.677L0.022,-0.018L-0.043,-0.018L-0.047,-0L0.235,-0L0.24,-0.018L0.159,-0.018L0.219,-0.287L0.273,-0.287C0.392,-0.287 0.503,-0.368 0.532,-0.495C0.561,-0.621 0.495,-0.695 0.367,-0.695ZM0.391,-0.503C0.361,-0.379 0.314,-0.303 0.266,-0.303L0.222,-0.303L0.306,-0.677L0.336,-0.677C0.397,-0.677 0.419,-0.627 0.391,-0.503Z" style="fill-rule:nonzero;"/>
                </g>
                <g transform="matrix(18.2578,0,0,18.2578,569.834,686.542)">
                    <path d="M0.38,-0.248C0.316,-0.077 0.262,-0.019 0.184,-0.019L0.158,-0.019L0.306,-0.676L0.383,-0.676L0.387,-0.695L0.109,-0.695L0.104,-0.676L0.169,-0.676L0.022,-0.019L-0.043,-0.019L-0.047,-0L0.335,-0L0.397,-0.248L0.38,-0.248Z" style="fill-rule:nonzero;"/>
                </g>
                <g transform="matrix(18.2578,0,0,18.2578,577.849,686.542)">
                    <path d="M0.385,-0.019L0.4,-0.696L0.289,-0.696L0.031,-0.089C0.014,-0.051 -0.017,-0.018 -0.061,-0.018L-0.078,-0.018L-0.083,-0L0.11,-0L0.114,-0.018L0.104,-0.018C0.06,-0.018 0.043,-0.044 0.062,-0.087L0.118,-0.224L0.255,-0.224L0.248,-0.019L0.196,-0.019L0.192,-0L0.436,-0L0.441,-0.019L0.385,-0.019ZM0.127,-0.245L0.265,-0.581L0.255,-0.245L0.127,-0.245Z" style="fill-rule:nonzero;"/>
                </g>
                <g transform="matrix(18.2578,0,0,18.2578,586.667,686.542)">
                    <path d="M0.429,-0.695L0.425,-0.677L0.427,-0.677C0.465,-0.677 0.494,-0.646 0.481,-0.585L0.386,-0.162L0.303,-0.695L0.1,-0.695L0.096,-0.677L0.117,-0.677C0.159,-0.677 0.169,-0.66 0.159,-0.615L0.048,-0.116C0.033,-0.05 -0.01,-0.018 -0.051,-0.018L-0.061,-0.018L-0.066,-0L0.133,-0L0.138,-0.018L0.13,-0.018C0.086,-0.018 0.058,-0.05 0.073,-0.116L0.184,-0.612L0.288,0.007L0.372,0.007L0.505,-0.585C0.518,-0.646 0.564,-0.677 0.6,-0.677L0.606,-0.677L0.611,-0.695L0.429,-0.695Z" style="fill-rule:nonzero;"/>
                </g>
                <g transform="matrix(18.2578,0,0,18.2578,596.326,686.542)">
                    <path d="M0.128,-0.695L0.059,-0.428L0.079,-0.428C0.135,-0.588 0.209,-0.676 0.28,-0.677L0.132,-0.018L0.053,-0.018L0.048,-0L0.342,-0L0.347,-0.018L0.268,-0.018L0.416,-0.677C0.486,-0.675 0.517,-0.587 0.505,-0.428L0.525,-0.428L0.574,-0.695L0.128,-0.695Z" style="fill-rule:nonzero;"/>
                </g>
                <g transform="matrix(18.2578,0,0,18.2578,606.093,686.542)">
                    <path d="M0.367,-0.695L0.109,-0.695L0.104,-0.677L0.17,-0.677L0.022,-0.018L-0.043,-0.018L-0.047,-0L0.235,-0L0.24,-0.018L0.159,-0.018L0.219,-0.287L0.273,-0.287C0.392,-0.287 0.503,-0.368 0.532,-0.495C0.561,-0.621 0.495,-0.695 0.367,-0.695ZM0.391,-0.503C0.361,-0.379 0.314,-0.303 0.266,-0.303L0.222,-0.303L0.306,-0.677L0.336,-0.677C0.397,-0.677 0.419,-0.627 0.391,-0.503Z" style="fill-rule:nonzero;"/>
                </g>
                <g transform="matrix(18.2578,0,0,18.2578,614.492,686.542)">
                    <path d="M0.385,-0.019L0.4,-0.696L0.289,-0.696L0.031,-0.089C0.014,-0.051 -0.017,-0.018 -0.061,-0.018L-0.078,-0.018L-0.083,-0L0.11,-0L0.114,-0.018L0.104,-0.018C0.06,-0.018 0.043,-0.044 0.062,-0.087L0.118,-0.224L0.255,-0.224L0.248,-0.019L0.196,-0.019L0.192,-0L0.436,-0L0.441,-0.019L0.385,-0.019ZM0.127,-0.245L0.265,-0.581L0.255,-0.245L0.127,-0.245Z" style="fill-rule:nonzero;"/>
                </g>
                <g transform="matrix(18.2578,0,0,18.2578,623.311,686.542)">
                    <path d="M0.429,-0.695L0.425,-0.677L0.427,-0.677C0.465,-0.677 0.494,-0.646 0.481,-0.585L0.386,-0.162L0.303,-0.695L0.1,-0.695L0.096,-0.677L0.117,-0.677C0.159,-0.677 0.169,-0.66 0.159,-0.615L0.048,-0.116C0.033,-0.05 -0.01,-0.018 -0.051,-0.018L-0.061,-0.018L-0.066,-0L0.133,-0L0.138,-0.018L0.13,-0.018C0.086,-0.018 0.058,-0.05 0.073,-0.116L0.184,-0.612L0.288,0.007L0.372,0.007L0.505,-0.585C0.518,-0.646 0.564,-0.677 0.6,-0.677L0.606,-0.677L0.611,-0.695L0.429,-0.695Z" style="fill-rule:nonzero;"/>
                </g>
                <g transform="matrix(18.2578,0,0,18.2578,632.969,686.542)">
                    <path d="M0.128,-0.695L0.059,-0.428L0.079,-0.428C0.135,-0.588 0.209,-0.676 0.28,-0.677L0.132,-0.018L0.053,-0.018L0.048,-0L0.342,-0L0.347,-0.018L0.268,-0.018L0.416,-0.677C0.486,-0.675 0.517,-0.587 0.505,-0.428L0.525,-0.428L0.574,-0.695L0.128,-0.695Z" style="fill-rule:nonzero;"/>
                </g>
                <g transform="matrix(18.2578,0,0,18.2578,642.518,686.542)">
                    <path d="M0.388,-0.188C0.413,-0.3 0.374,-0.364 0.288,-0.426C0.217,-0.476 0.19,-0.524 0.196,-0.589C0.202,-0.659 0.251,-0.688 0.301,-0.688C0.399,-0.688 0.398,-0.596 0.412,-0.505L0.429,-0.505L0.47,-0.698L0.456,-0.698C0.444,-0.673 0.431,-0.661 0.415,-0.661C0.388,-0.661 0.37,-0.707 0.295,-0.707C0.233,-0.707 0.124,-0.674 0.097,-0.53C0.079,-0.428 0.115,-0.355 0.191,-0.301C0.277,-0.238 0.295,-0.204 0.288,-0.128C0.28,-0.058 0.235,-0.01 0.173,-0.01C0.077,-0.01 0.063,-0.11 0.047,-0.237L0.029,-0.237L-0.022,0.006L-0.007,0.006C0.007,-0.017 0.026,-0.037 0.047,-0.037C0.083,-0.037 0.097,0.012 0.177,0.012C0.249,0.012 0.354,-0.038 0.388,-0.188Z" style="fill-rule:nonzero;"/>
                </g>
                <rect x="484.479" y="687.528" width="166.073" height="0.511" style="fill-rule:nonzero;"/>
            </g>
            <g transform="matrix(0.312444,0,0,0.312444,1469.17,814.313)">
                <g transform="matrix(288,0,0,288,855.666,1242.82)">
                    <path d="M0.258,-0.079L0.271,-0.001C0.246,0.004 0.224,0.007 0.204,0.007C0.172,0.007 0.147,0.002 0.13,-0.008C0.112,-0.018 0.1,-0.032 0.093,-0.048C0.086,-0.065 0.082,-0.099 0.082,-0.152L0.082,-0.45L0.018,-0.45L0.018,-0.519L0.082,-0.519L0.082,-0.647L0.169,-0.7L0.169,-0.519L0.258,-0.519L0.258,-0.45L0.169,-0.45L0.169,-0.147C0.169,-0.122 0.171,-0.106 0.174,-0.099C0.177,-0.091 0.182,-0.086 0.189,-0.082C0.196,-0.077 0.206,-0.075 0.219,-0.075C0.229,-0.075 0.242,-0.076 0.258,-0.079Z" style="fill-rule:nonzero;"/>
                </g>
                <g transform="matrix(288,0,0,288,935.681,1242.82)">
                    <path d="M0.066,-0L0.066,-0.716L0.154,-0.716L0.154,-0.459C0.195,-0.507 0.247,-0.53 0.309,-0.53C0.347,-0.53 0.381,-0.523 0.409,-0.508C0.438,-0.492 0.458,-0.472 0.47,-0.445C0.482,-0.418 0.488,-0.379 0.488,-0.329L0.488,-0L0.4,-0L0.4,-0.329C0.4,-0.373 0.391,-0.405 0.372,-0.425C0.353,-0.445 0.326,-0.455 0.291,-0.455C0.265,-0.455 0.24,-0.448 0.218,-0.434C0.195,-0.421 0.178,-0.403 0.168,-0.379C0.159,-0.356 0.154,-0.324 0.154,-0.284L0.154,-0L0.066,-0Z" style="fill-rule:nonzero;"/>
                </g>
                <g transform="matrix(288,0,0,288,1095.85,1242.82)">
                    <path d="M0.421,-0.167L0.512,-0.156C0.497,-0.103 0.471,-0.062 0.432,-0.032C0.393,-0.003 0.344,0.012 0.284,0.012C0.208,0.012 0.148,-0.012 0.103,-0.058C0.059,-0.105 0.037,-0.171 0.037,-0.255C0.037,-0.342 0.059,-0.41 0.104,-0.458C0.149,-0.506 0.207,-0.53 0.279,-0.53C0.348,-0.53 0.405,-0.507 0.449,-0.459C0.493,-0.412 0.515,-0.346 0.515,-0.26C0.515,-0.255 0.514,-0.247 0.514,-0.237L0.127,-0.237C0.131,-0.18 0.147,-0.136 0.176,-0.106C0.205,-0.076 0.241,-0.061 0.284,-0.061C0.316,-0.061 0.344,-0.069 0.367,-0.086C0.389,-0.103 0.408,-0.13 0.421,-0.167ZM0.132,-0.309L0.422,-0.309C0.418,-0.353 0.407,-0.385 0.389,-0.407C0.361,-0.441 0.324,-0.458 0.28,-0.458C0.239,-0.458 0.205,-0.444 0.178,-0.417C0.15,-0.39 0.135,-0.354 0.132,-0.309Z" style="fill-rule:nonzero;"/>
                </g>
                <g transform="matrix(288,0,0,288,1336.04,1242.82)">
                    <path d="M0.066,0.199L0.066,-0.519L0.146,-0.519L0.146,-0.451C0.165,-0.478 0.186,-0.497 0.21,-0.51C0.234,-0.524 0.263,-0.53 0.296,-0.53C0.341,-0.53 0.38,-0.519 0.414,-0.496C0.447,-0.473 0.473,-0.441 0.49,-0.4C0.507,-0.358 0.516,-0.313 0.516,-0.263C0.516,-0.21 0.507,-0.162 0.488,-0.12C0.469,-0.077 0.441,-0.045 0.405,-0.022C0.368,0 0.33,0.012 0.29,0.012C0.261,0.012 0.234,0.006 0.211,-0.007C0.188,-0.019 0.169,-0.035 0.154,-0.054L0.154,0.199L0.066,0.199ZM0.146,-0.256C0.146,-0.19 0.159,-0.14 0.186,-0.108C0.213,-0.076 0.246,-0.061 0.284,-0.061C0.323,-0.061 0.357,-0.077 0.385,-0.11C0.412,-0.143 0.426,-0.194 0.426,-0.264C0.426,-0.33 0.413,-0.379 0.385,-0.412C0.358,-0.445 0.326,-0.461 0.288,-0.461C0.251,-0.461 0.218,-0.444 0.189,-0.409C0.16,-0.374 0.146,-0.323 0.146,-0.256Z" style="fill-rule:nonzero;"/>
                </g>
                <g transform="matrix(288,0,0,288,1496.21,1242.82)">
                    <rect x="0.064" y="-0.716" width="0.088" height="0.716" style="fill-rule:nonzero;"/>
                </g>
                <g transform="matrix(288,0,0,288,1560.2,1242.82)">
                    <path d="M0.404,-0.064C0.372,-0.036 0.34,-0.017 0.31,-0.005C0.28,0.006 0.248,0.012 0.213,0.012C0.156,0.012 0.113,-0.002 0.082,-0.03C0.051,-0.058 0.036,-0.093 0.036,-0.137C0.036,-0.162 0.042,-0.185 0.053,-0.206C0.065,-0.227 0.08,-0.244 0.099,-0.257C0.118,-0.27 0.139,-0.279 0.162,-0.286C0.179,-0.29 0.205,-0.295 0.24,-0.299C0.311,-0.307 0.363,-0.317 0.397,-0.329C0.397,-0.341 0.397,-0.349 0.397,-0.352C0.397,-0.388 0.389,-0.413 0.373,-0.428C0.35,-0.448 0.317,-0.458 0.272,-0.458C0.231,-0.458 0.201,-0.45 0.181,-0.436C0.161,-0.421 0.147,-0.396 0.137,-0.359L0.051,-0.371C0.059,-0.407 0.072,-0.437 0.09,-0.46C0.108,-0.482 0.134,-0.5 0.167,-0.512C0.201,-0.524 0.241,-0.53 0.285,-0.53C0.329,-0.53 0.365,-0.525 0.393,-0.515C0.421,-0.504 0.441,-0.491 0.454,-0.475C0.467,-0.46 0.476,-0.44 0.481,-0.416C0.484,-0.401 0.486,-0.374 0.486,-0.334L0.486,-0.217C0.486,-0.136 0.488,-0.084 0.491,-0.062C0.495,-0.041 0.503,-0.02 0.514,-0L0.422,-0C0.413,-0.018 0.407,-0.04 0.404,-0.064ZM0.397,-0.26C0.365,-0.247 0.317,-0.236 0.253,-0.227C0.217,-0.222 0.192,-0.216 0.177,-0.209C0.162,-0.203 0.15,-0.193 0.142,-0.181C0.134,-0.168 0.13,-0.154 0.13,-0.139C0.13,-0.116 0.139,-0.096 0.156,-0.081C0.174,-0.065 0.2,-0.057 0.234,-0.057C0.268,-0.057 0.298,-0.065 0.325,-0.079C0.351,-0.094 0.37,-0.114 0.383,-0.14C0.392,-0.16 0.397,-0.189 0.397,-0.228L0.397,-0.26Z" style="fill-rule:nonzero;"/>
                </g>
                <g transform="matrix(288,0,0,288,1720.37,1242.82)">
                    <path d="M0.066,-0L0.066,-0.519L0.145,-0.519L0.145,-0.445C0.183,-0.502 0.238,-0.53 0.31,-0.53C0.341,-0.53 0.37,-0.525 0.396,-0.513C0.422,-0.502 0.442,-0.487 0.455,-0.469C0.468,-0.451 0.477,-0.429 0.482,-0.404C0.486,-0.388 0.487,-0.36 0.487,-0.319L0.487,-0L0.399,-0L0.399,-0.315C0.399,-0.351 0.396,-0.378 0.389,-0.396C0.382,-0.413 0.37,-0.428 0.353,-0.438C0.335,-0.449 0.315,-0.454 0.292,-0.454C0.254,-0.454 0.222,-0.442 0.195,-0.418C0.167,-0.395 0.154,-0.35 0.154,-0.283L0.154,-0L0.066,-0Z" style="fill-rule:nonzero;"/>
                </g>
                <g transform="matrix(288,0,0,288,1880.54,1242.82)">
                    <path d="M0.258,-0.079L0.271,-0.001C0.246,0.004 0.224,0.007 0.204,0.007C0.172,0.007 0.147,0.002 0.13,-0.008C0.112,-0.018 0.1,-0.032 0.093,-0.048C0.086,-0.065 0.082,-0.099 0.082,-0.152L0.082,-0.45L0.018,-0.45L0.018,-0.519L0.082,-0.519L0.082,-0.647L0.169,-0.7L0.169,-0.519L0.258,-0.519L0.258,-0.45L0.169,-0.45L0.169,-0.147C0.169,-0.122 0.171,-0.106 0.174,-0.099C0.177,-0.091 0.182,-0.086 0.189,-0.082C0.196,-0.077 0.206,-0.075 0.219,-0.075C0.229,-0.075 0.242,-0.076 0.258,-0.079Z" style="fill-rule:nonzero;"/>
                </g>
                <g transform="matrix(288,0,0,288,1960.56,1242.82)">
                    <path d="M0.066,-0.615L0.066,-0.716L0.154,-0.716L0.154,-0.615L0.066,-0.615ZM0.066,-0L0.066,-0.519L0.154,-0.519L0.154,-0L0.066,-0Z" style="fill-rule:nonzero;"/>
                </g>
                <g transform="matrix(288,0,0,288,2024.54,1242.82)">
                    <path d="M0.421,-0.167L0.512,-0.156C0.497,-0.103 0.471,-0.062 0.432,-0.032C0.393,-0.003 0.344,0.012 0.284,0.012C0.208,0.012 0.148,-0.012 0.103,-0.058C0.059,-0.105 0.037,-0.171 0.037,-0.255C0.037,-0.342 0.059,-0.41 0.104,-0.458C0.149,-0.506 0.207,-0.53 0.279,-0.53C0.348,-0.53 0.405,-0.507 0.449,-0.459C0.493,-0.412 0.515,-0.346 0.515,-0.26C0.515,-0.255 0.514,-0.247 0.514,-0.237L0.127,-0.237C0.131,-0.18 0.147,-0.136 0.176,-0.106C0.205,-0.076 0.241,-0.061 0.284,-0.061C0.316,-0.061 0.344,-0.069 0.367,-0.086C0.389,-0.103 0.408,-0.13 0.421,-0.167ZM0.132,-0.309L0.422,-0.309C0.418,-0.353 0.407,-0.385 0.389,-0.407C0.361,-0.441 0.324,-0.458 0.28,-0.458C0.239,-0.458 0.205,-0.444 0.178,-0.417C0.15,-0.39 0.135,-0.354 0.132,-0.309Z" style="fill-rule:nonzero;"/>
                </g>
                <g transform="matrix(288,0,0,288,2184.71,1242.82)">
                    <path d="M0.031,-0.155L0.118,-0.168C0.123,-0.134 0.136,-0.107 0.158,-0.088C0.181,-0.07 0.212,-0.061 0.252,-0.061C0.292,-0.061 0.322,-0.069 0.342,-0.085C0.361,-0.102 0.371,-0.121 0.371,-0.143C0.371,-0.163 0.362,-0.179 0.345,-0.19C0.333,-0.198 0.303,-0.208 0.255,-0.22C0.191,-0.236 0.146,-0.25 0.121,-0.262C0.096,-0.274 0.078,-0.29 0.065,-0.311C0.052,-0.332 0.045,-0.355 0.045,-0.381C0.045,-0.404 0.051,-0.425 0.061,-0.445C0.072,-0.465 0.086,-0.481 0.104,-0.494C0.118,-0.504 0.137,-0.513 0.16,-0.52C0.184,-0.527 0.209,-0.53 0.236,-0.53C0.277,-0.53 0.313,-0.524 0.344,-0.513C0.374,-0.501 0.397,-0.485 0.412,-0.465C0.426,-0.445 0.436,-0.418 0.442,-0.385L0.356,-0.373C0.352,-0.4 0.341,-0.421 0.322,-0.436C0.303,-0.451 0.277,-0.458 0.243,-0.458C0.202,-0.458 0.174,-0.451 0.156,-0.438C0.139,-0.425 0.13,-0.409 0.13,-0.391C0.13,-0.38 0.134,-0.369 0.141,-0.36C0.148,-0.351 0.16,-0.343 0.175,-0.337C0.184,-0.334 0.209,-0.326 0.252,-0.314C0.315,-0.298 0.358,-0.284 0.383,-0.274C0.407,-0.263 0.426,-0.248 0.44,-0.228C0.454,-0.207 0.461,-0.182 0.461,-0.152C0.461,-0.123 0.453,-0.095 0.436,-0.07C0.419,-0.044 0.394,-0.024 0.362,-0.01C0.33,0.005 0.293,0.012 0.252,0.012C0.185,0.012 0.134,-0.002 0.098,-0.03C0.063,-0.058 0.041,-0.1 0.031,-0.155Z" style="fill-rule:nonzero;"/>
                </g>
                <g transform="matrix(288,0,0,288,2328.71,1242.82)">
                    <path d="M0.258,-0.079L0.271,-0.001C0.246,0.004 0.224,0.007 0.204,0.007C0.172,0.007 0.147,0.002 0.13,-0.008C0.112,-0.018 0.1,-0.032 0.093,-0.048C0.086,-0.065 0.082,-0.099 0.082,-0.152L0.082,-0.45L0.018,-0.45L0.018,-0.519L0.082,-0.519L0.082,-0.647L0.169,-0.7L0.169,-0.519L0.258,-0.519L0.258,-0.45L0.169,-0.45L0.169,-0.147C0.169,-0.122 0.171,-0.106 0.174,-0.099C0.177,-0.091 0.182,-0.086 0.189,-0.082C0.196,-0.077 0.206,-0.075 0.219,-0.075C0.229,-0.075 0.242,-0.076 0.258,-0.079Z" style="fill-rule:nonzero;"/>
                </g>
                <g transform="matrix(288,0,0,288,2488.74,1242.82)">
                    <path d="M0.066,0.199L0.066,-0.519L0.146,-0.519L0.146,-0.451C0.165,-0.478 0.186,-0.497 0.21,-0.51C0.234,-0.524 0.263,-0.53 0.296,-0.53C0.341,-0.53 0.38,-0.519 0.414,-0.496C0.447,-0.473 0.473,-0.441 0.49,-0.4C0.507,-0.358 0.516,-0.313 0.516,-0.263C0.516,-0.21 0.507,-0.162 0.488,-0.12C0.469,-0.077 0.441,-0.045 0.405,-0.022C0.368,0 0.33,0.012 0.29,0.012C0.261,0.012 0.234,0.006 0.211,-0.007C0.188,-0.019 0.169,-0.035 0.154,-0.054L0.154,0.199L0.066,0.199ZM0.146,-0.256C0.146,-0.19 0.159,-0.14 0.186,-0.108C0.213,-0.076 0.246,-0.061 0.284,-0.061C0.323,-0.061 0.357,-0.077 0.385,-0.11C0.412,-0.143 0.426,-0.194 0.426,-0.264C0.426,-0.33 0.413,-0.379 0.385,-0.412C0.358,-0.445 0.326,-0.461 0.288,-0.461C0.251,-0.461 0.218,-0.444 0.189,-0.409C0.16,-0.374 0.146,-0.323 0.146,-0.256Z" style="fill-rule:nonzero;"/>
                </g>
                <g transform="matrix(288,0,0,288,2648.92,1242.82)">
                    <rect x="0.064" y="-0.716" width="0.088" height="0.716" style="fill-rule:nonzero;"/>
                </g>
                <g transform="matrix(288,0,0,288,2712.9,1242.82)">
                    <path d="M0.404,-0.064C0.372,-0.036 0.34,-0.017 0.31,-0.005C0.28,0.006 0.248,0.012 0.213,0.012C0.156,0.012 0.113,-0.002 0.082,-0.03C0.051,-0.058 0.036,-0.093 0.036,-0.137C0.036,-0.162 0.042,-0.185 0.053,-0.206C0.065,-0.227 0.08,-0.244 0.099,-0.257C0.118,-0.27 0.139,-0.279 0.162,-0.286C0.179,-0.29 0.205,-0.295 0.24,-0.299C0.311,-0.307 0.363,-0.317 0.397,-0.329C0.397,-0.341 0.397,-0.349 0.397,-0.352C0.397,-0.388 0.389,-0.413 0.373,-0.428C0.35,-0.448 0.317,-0.458 0.272,-0.458C0.231,-0.458 0.201,-0.45 0.181,-0.436C0.161,-0.421 0.147,-0.396 0.137,-0.359L0.051,-0.371C0.059,-0.407 0.072,-0.437 0.09,-0.46C0.108,-0.482 0.134,-0.5 0.167,-0.512C0.201,-0.524 0.241,-0.53 0.285,-0.53C0.329,-0.53 0.365,-0.525 0.393,-0.515C0.421,-0.504 0.441,-0.491 0.454,-0.475C0.467,-0.46 0.476,-0.44 0.481,-0.416C0.484,-0.401 0.486,-0.374 0.486,-0.334L0.486,-0.217C0.486,-0.136 0.488,-0.084 0.491,-0.062C0.495,-0.041 0.503,-0.02 0.514,-0L0.422,-0C0.413,-0.018 0.407,-0.04 0.404,-0.064ZM0.397,-0.26C0.365,-0.247 0.317,-0.236 0.253,-0.227C0.217,-0.222 0.192,-0.216 0.177,-0.209C0.162,-0.203 0.15,-0.193 0.142,-0.181C0.134,-0.168 0.13,-0.154 0.13,-0.139C0.13,-0.116 0.139,-0.096 0.156,-0.081C0.174,-0.065 0.2,-0.057 0.234,-0.057C0.268,-0.057 0.298,-0.065 0.325,-0.079C0.351,-0.094 0.37,-0.114 0.383,-0.14C0.392,-0.16 0.397,-0.189 0.397,-0.228L0.397,-0.26Z" style="fill-rule:nonzero;"/>
                </g>
                <g transform="matrix(288,0,0,288,2873.07,1242.82)">
                    <path d="M0.066,-0L0.066,-0.519L0.145,-0.519L0.145,-0.445C0.183,-0.502 0.238,-0.53 0.31,-0.53C0.341,-0.53 0.37,-0.525 0.396,-0.513C0.422,-0.502 0.442,-0.487 0.455,-0.469C0.468,-0.451 0.477,-0.429 0.482,-0.404C0.486,-0.388 0.487,-0.36 0.487,-0.319L0.487,-0L0.399,-0L0.399,-0.315C0.399,-0.351 0.396,-0.378 0.389,-0.396C0.382,-0.413 0.37,-0.428 0.353,-0.438C0.335,-0.449 0.315,-0.454 0.292,-0.454C0.254,-0.454 0.222,-0.442 0.195,-0.418C0.167,-0.395 0.154,-0.35 0.154,-0.283L0.154,-0L0.066,-0Z" style="fill-rule:nonzero;"/>
                </g>
                <g transform="matrix(288,0,0,288,3033.24,1242.82)">
                    <path d="M0.258,-0.079L0.271,-0.001C0.246,0.004 0.224,0.007 0.204,0.007C0.172,0.007 0.147,0.002 0.13,-0.008C0.112,-0.018 0.1,-0.032 0.093,-0.048C0.086,-0.065 0.082,-0.099 0.082,-0.152L0.082,-0.45L0.018,-0.45L0.018,-0.519L0.082,-0.519L0.082,-0.647L0.169,-0.7L0.169,-0.519L0.258,-0.519L0.258,-0.45L0.169,-0.45L0.169,-0.147C0.169,-0.122 0.171,-0.106 0.174,-0.099C0.177,-0.091 0.182,-0.086 0.189,-0.082C0.196,-0.077 0.206,-0.075 0.219,-0.075C0.229,-0.075 0.242,-0.076 0.258,-0.079Z" style="fill-rule:nonzero;"/>
                </g>
                <g transform="matrix(288,0,0,288,3113.26,1242.82)">
                    <path d="M0.031,-0.155L0.118,-0.168C0.123,-0.134 0.136,-0.107 0.158,-0.088C0.181,-0.07 0.212,-0.061 0.252,-0.061C0.292,-0.061 0.322,-0.069 0.342,-0.085C0.361,-0.102 0.371,-0.121 0.371,-0.143C0.371,-0.163 0.362,-0.179 0.345,-0.19C0.333,-0.198 0.303,-0.208 0.255,-0.22C0.191,-0.236 0.146,-0.25 0.121,-0.262C0.096,-0.274 0.078,-0.29 0.065,-0.311C0.052,-0.332 0.045,-0.355 0.045,-0.381C0.045,-0.404 0.051,-0.425 0.061,-0.445C0.072,-0.465 0.086,-0.481 0.104,-0.494C0.118,-0.504 0.137,-0.513 0.16,-0.52C0.184,-0.527 0.209,-0.53 0.236,-0.53C0.277,-0.53 0.313,-0.524 0.344,-0.513C0.374,-0.501 0.397,-0.485 0.412,-0.465C0.426,-0.445 0.436,-0.418 0.442,-0.385L0.356,-0.373C0.352,-0.4 0.341,-0.421 0.322,-0.436C0.303,-0.451 0.277,-0.458 0.243,-0.458C0.202,-0.458 0.174,-0.451 0.156,-0.438C0.139,-0.425 0.13,-0.409 0.13,-0.391C0.13,-0.38 0.134,-0.369 0.141,-0.36C0.148,-0.351 0.16,-0.343 0.175,-0.337C0.184,-0.334 0.209,-0.326 0.252,-0.314C0.315,-0.298 0.358,-0.284 0.383,-0.274C0.407,-0.263 0.426,-0.248 0.44,-0.228C0.454,-0.207 0.461,-0.182 0.461,-0.152C0.461,-0.123 0.453,-0.095 0.436,-0.07C0.419,-0.044 0.394,-0.024 0.362,-0.01C0.33,0.005 0.293,0.012 0.252,0.012C0.185,0.012 0.134,-0.002 0.098,-0.03C0.063,-0.058 0.041,-0.1 0.031,-0.155Z" style="fill-rule:nonzero;"/>
                </g>
                <g transform="matrix(288,0,0,288,3257.26,1242.82)">
                    <rect x="0.091" y="-0.1" width="0.1" height="0.1" style="fill-rule:nonzero;"/>
                </g>
                <g transform="matrix(288,0,0,288,3417.29,1242.82)">
                    <path d="M0.031,-0.155L0.118,-0.168C0.123,-0.134 0.136,-0.107 0.158,-0.088C0.181,-0.07 0.212,-0.061 0.252,-0.061C0.292,-0.061 0.322,-0.069 0.342,-0.085C0.361,-0.102 0.371,-0.121 0.371,-0.143C0.371,-0.163 0.362,-0.179 0.345,-0.19C0.333,-0.198 0.303,-0.208 0.255,-0.22C0.191,-0.236 0.146,-0.25 0.121,-0.262C0.096,-0.274 0.078,-0.29 0.065,-0.311C0.052,-0.332 0.045,-0.355 0.045,-0.381C0.045,-0.404 0.051,-0.425 0.061,-0.445C0.072,-0.465 0.086,-0.481 0.104,-0.494C0.118,-0.504 0.137,-0.513 0.16,-0.52C0.184,-0.527 0.209,-0.53 0.236,-0.53C0.277,-0.53 0.313,-0.524 0.344,-0.513C0.374,-0.501 0.397,-0.485 0.412,-0.465C0.426,-0.445 0.436,-0.418 0.442,-0.385L0.356,-0.373C0.352,-0.4 0.341,-0.421 0.322,-0.436C0.303,-0.451 0.277,-0.458 0.243,-0.458C0.202,-0.458 0.174,-0.451 0.156,-0.438C0.139,-0.425 0.13,-0.409 0.13,-0.391C0.13,-0.38 0.134,-0.369 0.141,-0.36C0.148,-0.351 0.16,-0.343 0.175,-0.337C0.184,-0.334 0.209,-0.326 0.252,-0.314C0.315,-0.298 0.358,-0.284 0.383,-0.274C0.407,-0.263 0.426,-0.248 0.44,-0.228C0.454,-0.207 0.461,-0.182 0.461,-0.152C0.461,-0.123 0.453,-0.095 0.436,-0.07C0.419,-0.044 0.394,-0.024 0.362,-0.01C0.33,0.005 0.293,0.012 0.252,0.012C0.185,0.012 0.134,-0.002 0.098,-0.03C0.063,-0.058 0.041,-0.1 0.031,-0.155Z" style="fill-rule:nonzero;"/>
                </g>
                <g transform="matrix(288,0,0,288,3561.29,1242.82)">
                    <path d="M0.066,-0L0.066,-0.716L0.154,-0.716L0.154,-0.459C0.195,-0.507 0.247,-0.53 0.309,-0.53C0.347,-0.53 0.381,-0.523 0.409,-0.508C0.438,-0.492 0.458,-0.472 0.47,-0.445C0.482,-0.418 0.488,-0.379 0.488,-0.329L0.488,-0L0.4,-0L0.4,-0.329C0.4,-0.373 0.391,-0.405 0.372,-0.425C0.353,-0.445 0.326,-0.455 0.291,-0.455C0.265,-0.455 0.24,-0.448 0.218,-0.434C0.195,-0.421 0.178,-0.403 0.168,-0.379C0.159,-0.356 0.154,-0.324 0.154,-0.284L0.154,-0L0.066,-0Z" style="fill-rule:nonzero;"/>
                </g>
                <g transform="matrix(288,0,0,288,3721.46,1242.82)">
                    <path d="M0.066,-0.615L0.066,-0.716L0.154,-0.716L0.154,-0.615L0.066,-0.615ZM0.066,-0L0.066,-0.519L0.154,-0.519L0.154,-0L0.066,-0Z" style="fill-rule:nonzero;"/>
                </g>
                <g transform="matrix(288,0,0,288,3785.45,1242.82)">
                    <path d="M0.066,0.199L0.066,-0.519L0.146,-0.519L0.146,-0.451C0.165,-0.478 0.186,-0.497 0.21,-0.51C0.234,-0.524 0.263,-0.53 0.296,-0.53C0.341,-0.53 0.38,-0.519 0.414,-0.496C0.447,-0.473 0.473,-0.441 0.49,-0.4C0.507,-0.358 0.516,-0.313 0.516,-0.263C0.516,-0.21 0.507,-0.162 0.488,-0.12C0.469,-0.077 0.441,-0.045 0.405,-0.022C0.368,0 0.33,0.012 0.29,0.012C0.261,0.012 0.234,0.006 0.211,-0.007C0.188,-0.019 0.169,-0.035 0.154,-0.054L0.154,0.199L0.066,0.199ZM0.146,-0.256C0.146,-0.19 0.159,-0.14 0.186,-0.108C0.213,-0.076 0.246,-0.061 0.284,-0.061C0.323,-0.061 0.357,-0.077 0.385,-0.11C0.412,-0.143 0.426,-0.194 0.426,-0.264C0.426,-0.33 0.413,-0.379 0.385,-0.412C0.358,-0.445 0.326,-0.461 0.288,-0.461C0.251,-0.461 0.218,-0.444 0.189,-0.409C0.16,-0.374 0.146,-0.323 0.146,-0.256Z" style="fill-rule:nonzero;"/>
                </g>
                <g transform="matrix(288,0,0,288,3945.62,1242.82)">
                    <path d="M0.066,0.199L0.066,-0.519L0.146,-0.519L0.146,-0.451C0.165,-0.478 0.186,-0.497 0.21,-0.51C0.234,-0.524 0.263,-0.53 0.296,-0.53C0.341,-0.53 0.38,-0.519 0.414,-0.496C0.447,-0.473 0.473,-0.441 0.49,-0.4C0.507,-0.358 0.516,-0.313 0.516,-0.263C0.516,-0.21 0.507,-0.162 0.488,-0.12C0.469,-0.077 0.441,-0.045 0.405,-0.022C0.368,0 0.33,0.012 0.29,0.012C0.261,0.012 0.234,0.006 0.211,-0.007C0.188,-0.019 0.169,-0.035 0.154,-0.054L0.154,0.199L0.066,0.199ZM0.146,-0.256C0.146,-0.19 0.159,-0.14 0.186,-0.108C0.213,-0.076 0.246,-0.061 0.284,-0.061C0.323,-0.061 0.357,-0.077 0.385,-0.11C0.412,-0.143 0.426,-0.194 0.426,-0.264C0.426,-0.33 0.413,-0.379 0.385,-0.412C0.358,-0.445 0.326,-0.461 0.288,-0.461C0.251,-0.461 0.218,-0.444 0.189,-0.409C0.16,-0.374 0.146,-0.323 0.146,-0.256Z" style="fill-rule:nonzero;"/>
                </g>
                <g transform="matrix(288,0,0,288,4105.79,1242.82)">
                    <path d="M0.421,-0.167L0.512,-0.156C0.497,-0.103 0.471,-0.062 0.432,-0.032C0.393,-0.003 0.344,0.012 0.284,0.012C0.208,0.012 0.148,-0.012 0.103,-0.058C0.059,-0.105 0.037,-0.171 0.037,-0.255C0.037,-0.342 0.059,-0.41 0.104,-0.458C0.149,-0.506 0.207,-0.53 0.279,-0.53C0.348,-0.53 0.405,-0.507 0.449,-0.459C0.493,-0.412 0.515,-0.346 0.515,-0.26C0.515,-0.255 0.514,-0.247 0.514,-0.237L0.127,-0.237C0.131,-0.18 0.147,-0.136 0.176,-0.106C0.205,-0.076 0.241,-0.061 0.284,-0.061C0.316,-0.061 0.344,-0.069 0.367,-0.086C0.389,-0.103 0.408,-0.13 0.421,-0.167ZM0.132,-0.309L0.422,-0.309C0.418,-0.353 0.407,-0.385 0.389,-0.407C0.361,-0.441 0.324,-0.458 0.28,-0.458C0.239,-0.458 0.205,-0.444 0.178,-0.417C0.15,-0.39 0.135,-0.354 0.132,-0.309Z" style="fill-rule:nonzero;"/>
                </g>
                <g transform="matrix(288,0,0,288,4265.96,1242.82)">
                    <path d="M0.402,-0L0.402,-0.065C0.369,-0.014 0.321,0.012 0.257,0.012C0.216,0.012 0.178,0 0.143,-0.022C0.109,-0.045 0.082,-0.077 0.063,-0.118C0.044,-0.159 0.034,-0.206 0.034,-0.259C0.034,-0.311 0.043,-0.358 0.06,-0.4C0.077,-0.442 0.103,-0.474 0.138,-0.497C0.172,-0.519 0.211,-0.53 0.253,-0.53C0.285,-0.53 0.313,-0.524 0.337,-0.51C0.361,-0.497 0.381,-0.48 0.396,-0.459L0.396,-0.716L0.484,-0.716L0.484,-0L0.402,-0ZM0.125,-0.259C0.125,-0.192 0.139,-0.143 0.167,-0.11C0.194,-0.077 0.228,-0.061 0.266,-0.061C0.304,-0.061 0.337,-0.076 0.364,-0.108C0.39,-0.139 0.404,-0.187 0.404,-0.251C0.404,-0.322 0.39,-0.375 0.363,-0.408C0.335,-0.441 0.302,-0.458 0.262,-0.458C0.223,-0.458 0.19,-0.442 0.164,-0.41C0.138,-0.378 0.125,-0.327 0.125,-0.259Z" style="fill-rule:nonzero;"/>
                </g>
                <g transform="matrix(288,0,0,288,4506.15,1242.82)">
                    <path d="M0.162,-0L0.003,-0.519L0.094,-0.519L0.176,-0.219L0.207,-0.108C0.208,-0.113 0.217,-0.149 0.234,-0.215L0.316,-0.519L0.407,-0.519L0.484,-0.218L0.51,-0.119L0.54,-0.219L0.629,-0.519L0.714,-0.519L0.552,-0L0.461,-0L0.378,-0.311L0.358,-0.399L0.253,-0L0.162,-0Z" style="fill-rule:nonzero;"/>
                </g>
                <g transform="matrix(288,0,0,288,4714.13,1242.82)">
                    <path d="M0.033,-0.259C0.033,-0.355 0.06,-0.426 0.113,-0.473C0.158,-0.511 0.212,-0.53 0.276,-0.53C0.348,-0.53 0.406,-0.507 0.451,-0.46C0.496,-0.413 0.519,-0.349 0.519,-0.267C0.519,-0.2 0.509,-0.147 0.489,-0.109C0.469,-0.071 0.44,-0.041 0.402,-0.02C0.363,0.001 0.322,0.012 0.276,0.012C0.204,0.012 0.145,-0.012 0.1,-0.058C0.056,-0.105 0.033,-0.172 0.033,-0.259ZM0.124,-0.259C0.124,-0.193 0.138,-0.143 0.167,-0.11C0.196,-0.077 0.232,-0.061 0.276,-0.061C0.32,-0.061 0.356,-0.077 0.385,-0.11C0.414,-0.144 0.429,-0.194 0.429,-0.262C0.429,-0.326 0.414,-0.375 0.385,-0.408C0.356,-0.441 0.32,-0.458 0.276,-0.458C0.232,-0.458 0.196,-0.441 0.167,-0.408C0.138,-0.375 0.124,-0.326 0.124,-0.259Z" style="fill-rule:nonzero;"/>
                </g>
                <g transform="matrix(288,0,0,288,4874.31,1242.82)">
                    <path d="M0.065,-0L0.065,-0.519L0.144,-0.519L0.144,-0.44C0.164,-0.477 0.183,-0.501 0.2,-0.513C0.217,-0.524 0.236,-0.53 0.256,-0.53C0.286,-0.53 0.316,-0.521 0.347,-0.502L0.316,-0.42C0.295,-0.433 0.273,-0.439 0.252,-0.439C0.233,-0.439 0.215,-0.434 0.2,-0.422C0.185,-0.411 0.174,-0.395 0.167,-0.374C0.158,-0.343 0.153,-0.309 0.153,-0.271L0.153,-0L0.065,-0Z" style="fill-rule:nonzero;"/>
                </g>
                <g transform="matrix(288,0,0,288,4970.21,1242.82)">
                    <rect x="0.064" y="-0.716" width="0.088" height="0.716" style="fill-rule:nonzero;"/>
                </g>
                <g transform="matrix(288,0,0,288,5034.2,1242.82)">
                    <path d="M0.402,-0L0.402,-0.065C0.369,-0.014 0.321,0.012 0.257,0.012C0.216,0.012 0.178,0 0.143,-0.022C0.109,-0.045 0.082,-0.077 0.063,-0.118C0.044,-0.159 0.034,-0.206 0.034,-0.259C0.034,-0.311 0.043,-0.358 0.06,-0.4C0.077,-0.442 0.103,-0.474 0.138,-0.497C0.172,-0.519 0.211,-0.53 0.253,-0.53C0.285,-0.53 0.313,-0.524 0.337,-0.51C0.361,-0.497 0.381,-0.48 0.396,-0.459L0.396,-0.716L0.484,-0.716L0.484,-0L0.402,-0ZM0.125,-0.259C0.125,-0.192 0.139,-0.143 0.167,-0.11C0.194,-0.077 0.228,-0.061 0.266,-0.061C0.304,-0.061 0.337,-0.076 0.364,-0.108C0.39,-0.139 0.404,-0.187 0.404,-0.251C0.404,-0.322 0.39,-0.375 0.363,-0.408C0.335,-0.441 0.302,-0.458 0.262,-0.458C0.223,-0.458 0.19,-0.442 0.164,-0.41C0.138,-0.378 0.125,-0.327 0.125,-0.259Z" style="fill-rule:nonzero;"/>
                </g>
                <g transform="matrix(288,0,0,288,5194.37,1242.82)">
                    <path d="M0.162,-0L0.003,-0.519L0.094,-0.519L0.176,-0.219L0.207,-0.108C0.208,-0.113 0.217,-0.149 0.234,-0.215L0.316,-0.519L0.407,-0.519L0.484,-0.218L0.51,-0.119L0.54,-0.219L0.629,-0.519L0.714,-0.519L0.552,-0L0.461,-0L0.378,-0.311L0.358,-0.399L0.253,-0L0.162,-0Z" style="fill-rule:nonzero;"/>
                </g>
                <g transform="matrix(288,0,0,288,5402.35,1242.82)">
                    <path d="M0.066,-0.615L0.066,-0.716L0.154,-0.716L0.154,-0.615L0.066,-0.615ZM0.066,-0L0.066,-0.519L0.154,-0.519L0.154,-0L0.066,-0Z" style="fill-rule:nonzero;"/>
                </g>
                <g transform="matrix(288,0,0,288,5466.34,1242.82)">
                    <path d="M0.402,-0L0.402,-0.065C0.369,-0.014 0.321,0.012 0.257,0.012C0.216,0.012 0.178,0 0.143,-0.022C0.109,-0.045 0.082,-0.077 0.063,-0.118C0.044,-0.159 0.034,-0.206 0.034,-0.259C0.034,-0.311 0.043,-0.358 0.06,-0.4C0.077,-0.442 0.103,-0.474 0.138,-0.497C0.172,-0.519 0.211,-0.53 0.253,-0.53C0.285,-0.53 0.313,-0.524 0.337,-0.51C0.361,-0.497 0.381,-0.48 0.396,-0.459L0.396,-0.716L0.484,-0.716L0.484,-0L0.402,-0ZM0.125,-0.259C0.125,-0.192 0.139,-0.143 0.167,-0.11C0.194,-0.077 0.228,-0.061 0.266,-0.061C0.304,-0.061 0.337,-0.076 0.364,-0.108C0.39,-0.139 0.404,-0.187 0.404,-0.251C0.404,-0.322 0.39,-0.375 0.363,-0.408C0.335,-0.441 0.302,-0.458 0.262,-0.458C0.223,-0.458 0.19,-0.442 0.164,-0.41C0.138,-0.378 0.125,-0.327 0.125,-0.259Z" style="fill-rule:nonzero;"/>
                </g>
                <g transform="matrix(288,0,0,288,5626.51,1242.82)">
                    <path d="M0.421,-0.167L0.512,-0.156C0.497,-0.103 0.471,-0.062 0.432,-0.032C0.393,-0.003 0.344,0.012 0.284,0.012C0.208,0.012 0.148,-0.012 0.103,-0.058C0.059,-0.105 0.037,-0.171 0.037,-0.255C0.037,-0.342 0.059,-0.41 0.104,-0.458C0.149,-0.506 0.207,-0.53 0.279,-0.53C0.348,-0.53 0.405,-0.507 0.449,-0.459C0.493,-0.412 0.515,-0.346 0.515,-0.26C0.515,-0.255 0.514,-0.247 0.514,-0.237L0.127,-0.237C0.131,-0.18 0.147,-0.136 0.176,-0.106C0.205,-0.076 0.241,-0.061 0.284,-0.061C0.316,-0.061 0.344,-0.069 0.367,-0.086C0.389,-0.103 0.408,-0.13 0.421,-0.167ZM0.132,-0.309L0.422,-0.309C0.418,-0.353 0.407,-0.385 0.389,-0.407C0.361,-0.441 0.324,-0.458 0.28,-0.458C0.239,-0.458 0.205,-0.444 0.178,-0.417C0.15,-0.39 0.135,-0.354 0.132,-0.309Z" style="fill-rule:nonzero;"/>
                </g>
                <g transform="matrix(288,0,0,288,5786.68,1242.82)">
                    <rect x="0.091" y="-0.1" width="0.1" height="0.1" style="fill-rule:nonzero;"/>
                </g>
            </g>
            <g transform="matrix(1.8678,0.37521,-0.37521,1.8678,3473.24,844.026)">
                <path d="M0,150.892C0.654,150.663 1.179,150.466 1.835,150.27C2.621,150.074 6.65,150.171 6.978,150.924C6.191,152.071 1.704,152.628 0.131,153.381C-2.785,155.119 -3.964,157.641 -7.011,159.54C-8.55,160.491 -8.911,160.786 -10.254,161.932C-11.171,162.718 -13.791,164.389 -14.972,164.487C-16.25,164.552 -18.213,163.996 -19.755,163.93C-20.311,163.898 -24.34,163.996 -24.471,163.865C-24.896,163.44 -20.769,161.114 -20.409,160.883C-18.936,159.934 -17.462,158.918 -16.02,158C-14.152,156.822 -12.613,156.953 -10.613,156.297C-9.828,156.036 -6.814,155.053 -6.749,154.135L-6.749,153.972C-6.945,153.381 -10.221,154.528 -10.909,154.692C-14.119,155.478 -15.3,155.609 -18.312,157.445C-19.033,157.903 -24.931,161.736 -25.258,161.408C-25.683,160.917 -23.784,159.049 -23.423,158.722C-22.015,157.51 -20.572,156.297 -18.901,155.478C-16.739,154.43 -16.25,153.775 -13.726,153.218C-12.775,153.021 -12.218,152.858 -11.302,152.531C-9.697,151.973 -5.11,151.94 -3.014,151.613C-1.932,151.45 -1.016,151.252 0,150.892M-30.237,151.121C-30.204,152.169 -29.942,153.743 -30.958,154.462C-31.45,153.775 -31.319,152.989 -31.285,152.169C-31.45,150.957 -31.843,150.401 -31.941,149.058C-32.072,147.386 -32.497,146.206 -32.531,144.406C-32.597,141.129 -33.447,138.738 -34.594,135.593C-35.676,132.513 -34.89,138.05 -34.855,138.377L-34.824,138.574C-34.563,140.474 -33.905,142.145 -33.743,144.013C-33.547,146.274 -33.22,148.5 -32.858,150.761C-32.793,151.286 -31.777,159.18 -33.12,158.164C-33.84,157.641 -33.774,154.43 -33.809,153.512C-34.103,150.237 -34.79,147.649 -35.445,144.471C-35.971,142.309 -37.019,141.687 -37.445,140.147C-38.1,137.558 -36.691,133.071 -36.199,130.286C-35.872,128.452 -35.774,129.074 -34.955,130.483C-33.316,133.332 -33.021,132.874 -32.072,136.446C-31.516,138.541 -31.385,139.492 -31.253,141.687C-31.154,143.717 -30.991,144.995 -30.664,146.96C-30.4,148.435 -30.27,149.647 -30.237,151.121M6.847,136.74C5.341,136.117 4.618,135.823 3.079,135.365C0.982,134.742 -0.95,133.989 -3.047,133.366C-5.603,132.612 -6.977,130.974 -8.584,128.943C-11.105,125.733 -5.83,128.517 -4.947,128.91C-2.589,129.958 -1.408,130.451 1.146,131.006C2.687,131.367 9.043,133.693 10.124,132.546C10.811,131.826 6.749,131.006 6.291,130.843C4.456,130.286 3.275,129.566 1.277,129.172C-0.427,128.811 -1.343,128.68 -3.014,128.124C-3.309,128.026 -6.649,127.141 -5.699,126.617L-5.603,126.551C-4.718,126.06 -1.112,127.567 0.23,127.763C4.487,128.386 3.736,127.599 8.059,129.729C12.219,131.76 13.138,130.909 17.166,131.597C19.983,132.087 18.148,132.743 16.675,133.857C14.381,135.561 13.203,136.838 10.189,137.264C8.978,137.427 7.962,137.199 6.847,136.74M-0.851,118.165C-3.866,118.623 -6.257,118.951 -1.835,116.954C0.196,116.036 3.702,115.183 5.176,113.644C6.781,112.006 7.208,112.072 8.943,110.892C9.532,110.466 10.811,109.483 10.745,108.664C10.68,108.009 9.14,109.122 8.781,109.287C6.487,110.498 5.93,110.433 3.964,112.367C2.194,114.102 0.721,113.971 -1.377,115.118C-1.508,115.183 -5.078,117.182 -4.291,115.839C-3.701,114.856 -0.72,112.726 0.427,112.236C3.179,111.121 4.718,110.827 6.88,108.435C7.797,107.419 8.912,105.552 10.024,105.061C10.68,104.766 12.449,104.537 13.3,104.372C13.988,104.208 20.572,103.062 19.787,104.734C19.295,105.781 15.923,109.09 14.873,110.04C14.48,110.401 14.054,110.761 13.63,111.121C12.352,112.236 11.794,113.218 10.713,114.298C9.336,115.643 7.666,115.839 5.962,116.527C2.817,117.804 2.391,117.705 -0.851,118.165M-27.648,94.053C-28.271,92.972 -29.025,92.449 -29.942,91.596C-31.187,90.45 -32.301,89.827 -33.447,88.516C-33.578,88.353 -35.578,85.961 -35.479,87.403C-35.348,89.27 -32.17,91.727 -30.86,93.136C-29.518,94.578 -28.599,95.397 -27.552,97.1C-25.355,100.605 -25.159,101.948 -23.98,105.748C-23.161,108.5 -22.049,110.073 -22.211,113.152C-22.276,114.856 -23.096,111.874 -23.227,111.547C-24.438,108.599 -26.536,106.829 -28.633,104.537C-29.418,103.653 -29.452,102.931 -30.172,102.046C-31.253,100.736 -31.678,99.951 -32.628,98.575C-33.939,96.609 -35.61,95.069 -36.986,93.136C-39.377,89.827 -39.346,90.711 -40.523,86.388C-41.375,83.243 -41.44,80.949 -41.54,77.74C-41.571,76.756 -41.835,75.544 -40.623,77.805C-38.526,81.703 -35.971,81.375 -33.382,84.488C-31.646,86.551 -29.845,88.68 -28.141,90.81C-27.094,92.153 -24.177,96.248 -24.405,97.919C-24.538,98.739 -25.521,97.263 -25.683,97.035C-26.437,96.085 -27.06,95.102 -27.648,94.053M4.325,75.61C6.093,73.611 8.32,71.088 9.797,68.893C9.928,68.697 11.074,67.059 10.255,67.124L10.155,67.124C8.878,67.354 5.341,72.072 4.226,73.316C3.898,73.709 3.537,74.135 3.21,74.529C1.508,76.232 0.262,77.509 -1.146,79.475C-2.162,80.883 -3.406,81.539 -4.587,82.785C-7.534,85.928 -4.783,81.506 -4.193,80.687C-3.309,79.41 -1.997,77.871 -1.343,76.527C-0.654,75.118 0.23,73.906 0.885,72.464C2.229,70.434 3.603,68.239 5.93,67.288C8.158,66.371 10.482,65.814 12.711,64.831C13.465,64.471 14.219,64.11 14.973,63.717C15.431,63.489 16.446,62.931 16.904,62.8C15.758,65.159 14.185,66.665 13.234,69.254C12.253,71.81 12.121,72.072 9.928,73.807C6.847,76.329 5.537,79.213 3.014,82.128C1.016,84.422 -0.327,85.011 -3.047,86.289C-6.977,88.123 -3.801,84.193 -2.785,83.177C-1.508,81.899 -0.916,81.375 0.1,79.835C1.246,78.099 1.933,78.263 3.21,76.92C3.571,76.495 3.964,76.035 4.325,75.61M-25.979,58.476C-27.355,57.1 -27.976,55.856 -29.518,54.545C-30.893,53.366 -32.693,52.743 -34.136,51.694C-35.282,50.811 -36.33,49.762 -37.411,48.812C-39.967,46.42 -39.081,48.713 -37.38,50.482C-34.167,53.824 -31.416,53.627 -27.976,58.181C-25.421,61.522 -23.392,63.39 -22.08,67.583C-21.457,69.647 -21.032,70.237 -20.114,72.038C-19.263,73.742 -20.999,72.759 -21.784,71.614C-22.965,69.876 -23.062,68.205 -24.471,66.338C-25.159,65.454 -25.913,64.602 -26.633,63.717C-28.437,61.456 -30.204,59.294 -32.989,58.28C-36.363,57.035 -37.542,57.035 -40.229,54.283C-41.081,53.399 -41.867,52.449 -42.652,51.497C-43.833,50.089 -44.487,48.32 -45.438,46.714C-45.962,45.829 -45.864,45.405 -46.65,44.324C-46.945,43.93 -49.99,40.229 -49.401,40.033C-49.043,39.934 -46.485,40.883 -45.962,41.015C-44.095,41.538 -42.948,41.899 -41.113,42.587C-39.704,43.144 -36.134,44.029 -35.217,45.078C-34.267,46.159 -33.547,47.829 -32.628,49.106C-31.416,50.811 -30.729,51.826 -29.222,53.333C-28.01,54.578 -27.486,55.233 -26.471,56.608C-25.225,58.246 -24.209,58.64 -23.062,60.573C-21.032,63.947 -20.213,64.733 -19.624,68.73C-19.295,71.056 -19.983,69.942 -20.376,68.402C-21.098,65.585 -21.522,64.471 -23.096,62.014C-23.915,60.704 -24.896,59.557 -25.979,58.476M-11.629,74.79C-11.563,76.495 -11.14,78.067 -11.074,79.868C-11.006,81.506 -10.94,83.209 -10.875,84.847C-10.778,87.141 -11.105,88.877 -11.433,91.104C-11.825,93.759 -12.087,96.379 -12.087,99.066C-12.056,101.555 -11.956,103.75 -12.352,106.207C-12.71,108.5 -13.333,110.695 -13.923,112.923C-14.643,115.511 -15.692,117.739 -16.512,120.228C-17.527,123.407 -17.396,125.142 -17.527,128.386C-17.624,130.483 -18.082,132.546 -18.213,134.742C-18.378,137.558 -18.182,139.819 -19.033,142.604C-19.853,145.192 -20.737,147.682 -21.557,150.302C-22.08,151.908 -22.996,153.414 -23.653,155.02C-25.028,158 -27.225,160.294 -29.091,162.98C-31.547,166.486 -33.055,167.959 -36.363,170.613C-38.526,172.35 -39.967,173.988 -41.77,176.052C-44.422,179.098 -48.978,181.588 -52.744,182.964C-53.562,183.292 -53.857,183.063 -54.742,182.832C-56.347,182.44 -56.412,182.571 -54.446,181.555C-51.729,180.114 -49.794,179.394 -47.207,177.559C-44.783,175.823 -42.229,173.661 -39.869,171.76C-35.151,167.927 -28.371,161.67 -25.521,156.33C-24.996,155.315 -24.471,154.266 -23.946,153.25C-22.245,150.074 -21.85,148.698 -22.015,145.061C-22.114,143.03 -21.719,142.735 -20.999,140.802C-20.507,139.524 -20.376,137.952 -20.017,136.577C-19.001,132.415 -18.478,130.516 -18.608,126.158C-18.705,123.93 -18.312,123.603 -18.017,121.604C-17.854,120.655 -17.755,119.704 -17.559,118.754C-17.035,116.232 -16.577,113.775 -15.988,111.22C-15.593,109.517 -15.43,107.714 -15.069,105.978C-14.512,103.324 -14.841,100.605 -14.414,97.821C-13.988,95.2 -13.365,93.365 -12.71,90.842C-11.794,87.403 -11.563,82.882 -12.286,79.377C-12.613,77.805 -12.841,76.166 -13.137,74.561C-13.431,72.431 -13.233,70.925 -13.791,68.762C-14.446,66.043 -14.152,64.044 -15.069,61.195C-15.922,58.607 -17.266,56.183 -18.116,53.562C-19.229,49.893 -17.951,46.06 -17.135,42.49C-16.577,39.704 -14.938,35.871 -13.825,33.12C-12.875,30.663 -9.532,22.637 -11.825,31.154C-12.875,35.085 -14.218,38 -15.758,41.67C-16.643,43.799 -17.886,48.975 -17.724,51.236C-17.297,54.742 -14.479,58.64 -13.3,62.178C-12.252,65.257 -11.99,68.009 -11.794,71.219L-11.76,71.546C-11.729,72.627 -11.663,73.709 -11.629,74.79M9.305,35.119C10.155,33.906 9.663,33.906 8.585,34.496C8.32,34.626 8.093,34.789 7.83,34.954C5.241,36.559 3.44,36.527 1.639,39.246C-0.065,41.768 -0.558,41.342 -2.62,43.045C-4.39,44.487 -5.144,45.502 -6.519,47.305L-6.715,47.567C-7.961,49.237 -8.715,50.22 -9.632,52.121C-10.647,54.184 -10.778,52.743 -10.155,51.204C-9.336,49.237 -7.207,45.699 -5.668,44.258C-3.439,42.161 -2.424,42.522 -0.492,39.606C1.016,37.379 1.9,36.265 4.226,34.789C4.521,34.593 4.849,34.43 5.176,34.266C6.257,33.709 7.372,33.25 8.485,32.759C10.647,31.777 11.925,31.187 13.334,29.189C14.315,27.78 15.659,26.24 17.232,25.454C18.968,24.602 17.756,27.255 17.527,27.976C16.643,30.924 15.431,35.806 13.234,37.968C11.467,39.704 10.024,39.77 8.189,41.211C7.208,42.03 6.847,42.424 5.733,43.144C4.487,43.93 4.226,44.29 3.179,45.208C1.77,46.42 0,46.846 -1.539,48.156C-3.636,49.893 -5.176,50.909 -6.977,53.07C-8.157,54.512 -8.681,53.464 -8.058,52.186C-7.372,50.744 -5.668,48.877 -4.652,47.469C-3.275,45.536 -2.391,45.012 -0.688,43.472C0.361,42.522 0.523,42.784 1.573,41.408C4.325,37.837 4.618,38.558 7.928,36.363C8.517,36.002 8.912,35.707 9.305,35.119M-24.538,13.987C-24.274,15.625 -24.538,18.018 -24.569,19.786C-24.635,23.127 -25.028,25.421 -24.438,28.861C-23.719,32.989 -25.946,30.27 -26.012,27.157L-26.012,26.732C-26.044,25.584 -25.881,24.537 -25.913,23.357C-25.979,21.227 -25.521,19.688 -26.012,17.493L-26.109,17.165C-26.798,14.12 -27.225,10.581 -29.452,8.255C-30.564,7.108 -31.516,6.354 -32.497,5.044C-33.186,4.094 -34.528,1.44 -35.249,0.916C-35.971,0.327 -36.167,0.786 -35.938,1.572C-35.676,2.522 -34.89,4.16 -34.332,4.979C-33.055,6.912 -31.678,8.386 -30.303,10.187C-29.156,11.695 -28.729,15.364 -28.206,17.296C-27.06,21.621 -27.321,21.915 -27.552,26.206C-27.714,29.123 -26.732,29.32 -25.913,31.809C-25.225,33.906 -24.471,35.119 -23.588,37.083C-22.669,39.115 -23.881,37.968 -24.569,37.018C-25.225,36.035 -25.683,34.954 -26.34,33.971C-28.271,31.055 -28.24,31.482 -28.96,27.976C-29.91,23.553 -33.316,21.523 -34.693,17.001C-35.249,15.265 -35.741,14.185 -36.134,12.317C-36.921,8.386 -38.1,8.549 -39.312,5.503C-40.523,2.489 -41.54,-0.034 -41.475,-3.342C-41.44,-3.768 -41.704,-13.629 -40.885,-11.664C-40.458,-10.648 -40.294,-9.403 -39.738,-8.224C-38.854,-6.258 -37.084,-5.504 -35.644,-3.932L-35.151,-3.376C-33.971,-2.098 -33.089,-1.049 -31.843,0.196C-29.714,2.358 -28.306,4.52 -26.633,7.042C-25.028,9.434 -24.931,11.17 -24.538,13.987M4.325,-7.764C3.964,-5.013 3.998,-3.114 3.244,-0.329C2.817,1.342 2.458,2.62 2.129,4.357C1.77,6.419 0.393,7.73 -0.785,9.369C-1.146,9.893 -1.508,10.351 -1.866,10.843C-2.097,11.137 -4.618,14.806 -4.814,14.479C-5.078,14.12 -2.851,8.942 -2.523,7.894C-2.128,6.583 -1.866,5.995 -1.312,4.749C-0.296,2.456 0.885,-1.475 1.179,-3.932C1.409,-5.767 1.508,-7.405 1.835,-9.272C2.229,-11.532 3.21,-17.921 0.654,-11.729C-0.327,-9.305 -0.361,-7.568 -0.72,-5.013C-0.885,-3.834 -1.081,-2.818 -1.377,-1.704C-1.997,0.424 -2.589,2.326 -3.374,4.357C-3.801,5.404 -6.487,13.332 -6.684,13.496C-6.945,13.66 -6.911,13.005 -6.911,12.907C-6.911,12.087 -6.846,11.039 -6.715,10.22C-6.257,6.419 -4.947,2.816 -4.291,-1.017C-3.341,-6.421 -2.589,-12.351 -1.246,-17.658C-0.131,-22.081 1.508,-24.276 4.391,-27.749C5.437,-28.994 5.537,-29.125 5.472,-27.159C5.372,-25.194 5.307,-24.309 5.668,-22.278C6.322,-18.543 6.781,-17.462 5.7,-13.531C5.176,-11.434 4.618,-9.927 4.325,-7.764M-22.703,21.818C-22.638,19.458 -22.407,17.493 -22.538,15.101C-22.669,13.202 -22.703,11.464 -23.062,9.598C-23.98,6.912 -26.24,3.603 -28.175,1.572C-29.614,0.065 -31.023,-1.082 -32.432,-2.687C-37.314,-8.322 -39.967,-10.025 -40.065,-17.987C-40.065,-18.903 -40,-22.147 -41.475,-21.983C-43.637,-21.721 -43.44,-9.108 -43.537,-6.815C-43.537,-6.487 -43.571,-6.127 -43.603,-5.799C-43.668,-4.457 -43.702,-3.146 -43.733,-1.835C-43.799,1.9 -41.671,6.485 -39.935,9.729L-39.804,9.991C-38.885,11.728 -38.688,13.562 -38.068,15.429C-37.215,17.919 -37.052,19.164 -35.61,21.556C-35.348,21.981 -35.086,22.407 -34.855,22.833C-33.971,24.372 -33.939,25.978 -33.12,27.714C-32.432,29.254 -31.612,30.728 -30.893,32.267C-29.483,35.216 -28.24,37.149 -26.044,39.475C-24.604,41.015 -23.784,42.326 -21.915,43.406C-21.491,43.668 -19.951,44.52 -19.951,45.044C-19.951,46.093 -20.737,48.09 -21.064,49.139C-22.015,53.366 -17.755,59.492 -16.608,63.783C-16.15,65.52 -15.889,67.354 -15.562,69.122C-15.266,70.827 -15.331,72.595 -15.103,74.398C-14.841,76.264 -14.414,78.132 -14.119,79.998C-13.825,81.703 -14.054,82.586 -14.775,80.294C-15.168,79.049 -15.496,78.099 -15.954,76.887C-17.331,73.153 -17.724,70.039 -18.64,66.305C-19.721,61.916 -21.719,59.884 -24.274,56.379C-25.617,54.48 -26.963,52.873 -28.599,51.204C-29.483,50.319 -31.712,48.058 -32.235,47.009C-32.432,46.617 -32.597,46.191 -32.759,45.764C-33.939,42.718 -35.644,42.49 -38.361,41.277C-40.229,40.491 -41.835,39.77 -43.799,39.18C-48.386,37.837 -51.171,35.969 -54.219,32.332C-54.708,31.777 -56.708,29.451 -57.329,30.827C-58.183,32.662 -52.875,38.853 -51.695,40.621C-49.828,43.372 -48.189,45.666 -46.749,48.713C-46.061,50.416 -44.914,51.858 -43.898,53.366C-41.113,56.641 -40.688,58.214 -36.822,60.671C-35.905,61.26 -34.824,62.014 -33.905,62.636C-32.27,63.783 -26.732,67.912 -25.815,69.353C-23.946,72.235 -25.159,72.169 -22.049,74.856C-20.967,75.806 -20.572,76.495 -20.049,77.805C-19.328,79.574 -19.557,80.425 -18.443,82.325C-17.624,83.734 -16.739,85.143 -15.692,86.388C-14.446,87.862 -14.414,88.647 -14.808,90.548C-14.972,91.433 -15.266,92.349 -15.496,93.267C-16.315,96.609 -16.608,99.787 -16.773,103.226C-16.805,104.405 -17.2,106.469 -17.362,107.746C-17.559,109.156 -18.543,115.577 -19.066,116.494C-19.491,115.577 -20.344,110.368 -20.376,109.188C-20.441,107.616 -20.541,107.06 -20.836,105.519C-20.901,105.126 -20.967,104.766 -20.999,104.372C-21.229,102.374 -21.457,100.736 -21.884,98.739C-22.538,95.724 -22.769,94.774 -24.604,92.218C-25.683,90.711 -26.109,89.499 -27.421,88.058C-28.96,86.388 -30.303,84.815 -31.743,83.046C-33.316,81.178 -34.136,80.883 -36.036,79.639C-37.869,78.426 -38.657,77.083 -39.411,75.019C-39.704,74.168 -39.901,73.25 -40.163,72.399C-40.558,70.991 -41.343,67.877 -42.229,66.83L-42.325,66.7C-43.079,65.782 -43.668,66.994 -43.733,67.78C-43.898,69.089 -43.537,71.023 -43.506,72.53C-43.472,76.329 -44.063,79.574 -43.506,83.471C-43.145,86.06 -42.718,89.565 -41.212,91.727C-41.048,92.022 -40.819,92.284 -40.623,92.546C-39.639,93.89 -39.146,95.364 -38.134,96.772C-36.396,99.098 -35.217,100.9 -33.905,103.489C-32.858,105.584 -32.366,106.207 -30.664,107.812C-30.139,108.304 -29.811,108.73 -29.188,109.287C-23.98,113.873 -24.242,114.889 -21.85,121.113C-21.098,123.014 -21.36,124.454 -21.098,126.453C-20.507,131.203 -20.18,131.662 -21.295,136.609C-21.818,138.968 -22.211,139.786 -23.161,141.85C-24.274,144.569 -23.588,144.537 -23.719,147.091C-24.078,149.352 -27.321,157.116 -29.188,158.263C-29.811,158.623 -28.24,153.218 -28.175,152.955C-27.944,152.071 -27.845,151.351 -27.91,150.433C-27.944,150.139 -28.01,149.843 -28.106,149.548C-28.437,148.566 -28.502,148.108 -28.698,147.091C-29.156,144.864 -29.483,143.948 -29.549,141.523C-29.714,136.247 -29.222,135.101 -32.366,130.451C-34.89,126.683 -34.955,126.617 -36.134,122.326C-36.265,121.769 -36.43,121.211 -36.592,120.655C-36.657,120.424 -38.034,116.036 -38.558,117.575C-38.819,118.231 -38.427,121.538 -38.361,122.587C-38.199,126.583 -38.1,129.63 -39.346,133.496C-39.738,134.742 -39.804,135.331 -39.869,136.609C-40.098,140.998 -40.458,140.08 -38.427,144.079C-37.249,146.437 -36.526,150.532 -36.167,153.185C-36.134,153.512 -36.134,153.775 -36.102,154.07C-35.774,157.641 -35.151,161.867 -36.134,165.371C-36.888,168.189 -39.508,169.5 -41.704,171.105C-43.864,172.645 -45.438,174.02 -47.436,175.725C-49.205,177.264 -49.99,177.591 -51.925,178.672C-52.907,179.229 -53.496,179.688 -54.546,180.179C-55.496,180.639 -58.739,181.851 -58.937,182.964C-59.164,184.34 -56.937,185.289 -55.889,185.487C-52.744,186.077 -48.582,185.028 -45.864,183.39C-43.833,182.145 -40.523,180.048 -39.081,178.182C-37.38,176.019 -37.019,175.233 -34.725,173.431C-32.924,171.99 -31.974,171.367 -30.531,169.467C-28.991,167.535 -26.798,166.06 -24.242,166.224C-23.588,166.256 -22.865,166.355 -22.211,166.42C-19.099,166.715 -17.559,168.255 -13.923,167.305C-10.32,166.387 -8.911,163.93 -6.092,161.899C-4.356,160.621 -3.178,159.869 -1.735,158.164C0.393,155.675 0.296,155.282 3.736,154.824C6.553,154.496 7.634,153.512 10.155,152.694C11.498,152.267 17.527,150.433 16.478,148.435L16.315,148.205C15.496,147.19 12.515,148.271 11.271,148.402C7.077,148.795 4.325,146.699 -0.131,148.566C-2.097,149.385 -3.701,149.385 -5.799,149.679C-10.188,150.302 -14.545,151.252 -18.412,153.545C-21.164,155.151 -20.572,154.724 -19.524,152.267C-18.64,150.237 -17.92,148.108 -17.231,146.01C-16.839,144.798 -16.543,143.684 -16.315,142.407C-16.085,140.671 -15.922,139.622 -15.854,137.821C-15.823,135.888 -15.658,134.413 -15.462,132.481C-15.364,131.4 -15.562,128.582 -14.512,128.124C-13.333,127.632 -11.074,129.074 -10.32,129.991L-10.155,130.187C-9.205,131.367 -8.78,132.546 -7.699,133.79C-6.322,135.462 -4.947,136.215 -2.981,137.035L-2.686,137.165C-1.474,137.69 0.95,138.312 2.294,138.672C6.454,139.753 9.239,140.965 13.334,138.672C15.331,137.591 16.544,136.871 18.379,135.496C21.13,133.463 22.834,133.071 25.913,131.924C26.667,131.662 29.223,130.548 28.306,129.402C27.683,128.615 25.683,129.303 24.735,129.434C23.392,129.598 21.523,129.663 20.148,129.729C17.985,129.828 15.431,129.467 13.203,129.369C12.973,129.369 12.744,129.369 12.515,129.336C9.928,129.172 7.535,127.96 5.145,126.977C3.31,126.191 1.605,126.223 -0.458,125.471C-5.864,123.504 -9.074,126.288 -11.171,125.83C-12.841,125.503 -10.417,123.799 -9.959,123.407C-6.584,120.589 -5.961,120.557 -1.573,120.819C0.23,120.95 2.229,120.884 4.029,120.72C4.749,120.655 5.307,120.557 5.995,120.327C7.339,119.901 7.731,119.541 8.878,118.754C11.205,117.117 11.532,117.281 13.334,114.856C14.973,112.661 16.15,111.94 18.052,110.073C20.214,108.009 22.08,106.142 24.374,104.176C25.683,103.03 27.519,101.196 27.19,99.294L27.125,99.033C26.929,97.821 25.39,98.673 24.604,99.033C20.114,101.065 20.769,101.228 15.659,101.85C13.727,102.079 11.957,102.735 10.09,103.127C7.339,103.75 7.47,104.602 5.7,106.6C1.867,110.957 -0.361,109.09 -3.078,111.613C-3.833,112.333 -4.814,113.775 -5.568,114.693C-6.584,115.839 -7.634,116.986 -8.649,118.1C-9.042,118.558 -15.004,124.652 -15.103,123.308C-15.103,123.112 -14.906,122.522 -14.841,122.292C-14.25,119.738 -13.398,117.247 -12.645,114.725C-12.417,113.971 -12.087,113.284 -11.891,112.497C-11.563,111.22 -11.433,110.106 -11.04,108.795C-9.927,104.962 -10.058,104.012 -9.927,100.179C-9.861,98.967 -9.501,98.213 -9.467,97.001C-9.336,93.332 -9.304,92.022 -5.668,90.515C-3.472,89.63 -1.081,89.074 1.016,88.123C1.671,87.862 2.229,87.535 2.817,87.173C4.226,86.454 5.176,85.208 6.061,83.931C7.208,82.325 7.797,80.916 8.517,79.082C10.059,75.38 12.58,75.511 14.284,72.104C15.396,69.778 16.119,68.73 17.658,66.7C19.69,64.012 20.572,61.851 23.293,59.59C24.047,58.967 25.848,57.329 24.013,56.739C22.015,56.084 18.51,58.934 16.97,60.114C15.988,60.901 14.512,61.621 13.399,62.276C9.928,64.308 8.517,64.57 4.849,65.748C3.702,66.142 3.179,66.436 2.194,67.158C0.95,68.435 -0.262,69.876 -0.981,71.546C-1.835,73.48 -3.603,76.495 -4.814,78.198C-6.78,80.982 -6.649,82.719 -8.026,85.405C-9.042,87.468 -8.846,85.242 -8.911,84.193C-9.14,81.047 -9.435,78.132 -9.861,74.987C-9.992,73.153 -9.763,71.875 -9.796,70.17C-9.894,67.812 -10.352,67.092 -10.81,65.028C-11.367,62.145 -10.451,58.411 -8.255,56.379C-7.011,55.2 -5.372,54.184 -3.898,53.333L-3.57,53.135C-2.193,52.35 -0.885,51.465 0.427,50.515C0.917,50.155 1.704,49.828 2.359,49.369C4.291,48.058 5.995,46.06 7.862,44.552C9.271,43.406 9.598,42.98 11.271,42.063C14.577,40.229 16.216,38.722 17.789,35.184C18.902,32.596 19.756,28.959 20.572,26.206C20.837,25.29 21.099,24.372 21.36,23.455C22.08,21.096 23.062,21.096 23.85,19.131C24.767,16.904 22.08,18.148 21.195,18.901C19.69,20.212 19.164,21.588 17.952,22.703C16.643,23.882 15.496,23.815 14.415,25.028C13.072,26.568 12.711,26.829 11.598,28.631C10.582,30.27 9.501,30.433 7.797,31.121C4.095,32.628 0.196,34.331 -2.128,37.772C-3.668,40.033 -4.356,40.327 -6.291,42.03C-7.503,43.045 -8.715,44.16 -9.336,45.601C-10.123,47.436 -10.254,48.91 -11.271,50.811C-12.218,53.135 -12.187,53.267 -11.956,55.592C-11.663,59.327 -12.645,59.622 -14.152,56.15C-14.775,54.676 -15.43,52.612 -15.627,51.039C-15.692,50.22 -15.692,49.566 -15.496,48.779C-15.3,48.123 -15.004,47.436 -14.775,46.781C-13.956,44.684 -14.349,44.16 -12.972,41.833C-11.891,40.098 -11.006,38.558 -10.221,36.624C-9.861,35.773 -9.763,34.724 -9.632,33.808C-9.336,31.547 -8.584,29.32 -8.255,26.994C-7.927,24.602 -7.73,22.276 -6.356,20.212C-5.176,18.443 -3.275,16.871 -1.866,15.298C0.917,12.186 4.487,8.975 5.437,4.749C6.16,1.572 6.553,-2.13 6.618,-5.406C6.716,-8.912 7.699,-11.369 8.451,-14.645C9.305,-18.314 8.255,-21.13 7.83,-24.767C7.372,-28.535 7.437,-28.928 8.354,-32.663C8.485,-33.285 9.009,-35.185 7.666,-34.792C5.341,-34.137 3.079,-29.452 1.573,-27.454C-1.67,-23.129 -1.604,-22.737 -3.047,-17.462C-3.603,-15.53 -4.259,-13.858 -4.587,-11.828C-4.88,-10.058 -5.274,-8.322 -5.437,-6.52C-5.668,-3.834 -6.257,-0.853 -6.715,1.867C-7.207,4.88 -7.796,7.042 -8.649,9.991C-9.796,13.987 -9.369,14.217 -9.304,18.246C-9.238,23.586 -13.137,25.192 -14.841,29.941C-15.889,32.89 -16.643,35.413 -17.951,38.295C-18.478,39.442 -18.87,40.588 -19.295,41.768C-20.703,39.18 -22.211,34.954 -22.669,32.038C-22.965,30.139 -23.03,27.944 -22.931,26.01C-22.834,24.602 -22.703,23.259 -22.703,21.818" style="fill-rule:nonzero;stroke:black;stroke-width:0.47px;"/>
            </g>
        </g>
    </g>
</svg>
